<?xml version="1.0" standalone="no"?>
<!DOCTYPE svg PUBLIC "-//W3C//DTD SVG 20010904//EN"
 "http://www.w3.org/TR/2001/REC-SVG-20010904/DTD/svg10.dtd">
<svg version="1.0" xmlns="http://www.w3.org/2000/svg"
 width="225.000000pt" height="225.000000pt" viewBox="0 0 225.000000 225.000000"
 preserveAspectRatio="xMidYMid meet">
<metadata>
Created by potrace 1.11, written by Peter Selinger 2001-2013
</metadata>
<g transform="translate(0.000000,225.000000) scale(0.100000,-0.100000)"
fill="#000000" stroke="none">
<path d="M860 2019 c-52 -11 -105 -22 -116 -25 -12 -2 -41 -20 -64 -39 -23
-19 -52 -35 -65 -35 -13 0 -30 -8 -37 -18 -7 -11 -31 -30 -53 -45 -22 -14 -60
-44 -84 -66 -24 -23 -49 -41 -55 -41 -24 0 -103 -86 -109 -118 -5 -22 -15 -35
-33 -42 -17 -7 -24 -15 -20 -25 3 -8 -6 -34 -19 -57 -21 -36 -43 -136 -37
-161 6 -23 -20 -283 -30 -294 -14 -17 6 -116 28 -133 7 -7 14 -19 14 -27 0 -9
13 -43 29 -77 17 -33 37 -78 45 -98 8 -21 20 -38 25 -38 6 0 11 -9 11 -21 0
-28 94 -120 148 -145 23 -10 42 -23 42 -29 1 -14 45 -55 59 -55 8 0 10 -11 6
-33 -8 -42 20 -70 73 -73 128 -9 153 -12 166 -23 10 -8 54 -14 118 -16 136 -4
140 -5 93 -19 -57 -18 -41 -31 33 -27 40 2 68 -2 78 -9 8 -7 15 -11 17 -9 1 2
7 13 13 24 9 15 25 21 73 26 34 3 67 11 74 18 6 6 26 11 45 11 25 0 35 -5 39
-20 7 -27 16 -25 54 10 18 16 35 28 37 25 2 -2 18 12 35 32 29 32 30 37 18 69
-10 29 -10 38 5 64 10 16 15 32 12 35 -11 12 -58 -27 -74 -61 -17 -36 -60 -52
-108 -40 -27 7 -46 -11 -26 -24 36 -22 -81 -41 -122 -19 -16 9 -24 6 -44 -12
-22 -21 -33 -23 -112 -21 -48 1 -102 7 -119 13 -18 6 -42 8 -53 4 -26 -8 -108
43 -112 70 -4 25 -100 75 -128 68 -11 -3 -20 0 -20 6 0 6 -11 11 -24 11 -14 0
-28 5 -31 11 -4 5 -17 14 -29 19 -13 5 -37 30 -55 56 -17 26 -37 49 -45 50 -7
1 -32 14 -54 28 -51 32 -95 112 -94 171 0 49 -21 126 -47 168 -15 25 -20 54
-22 139 -3 75 0 111 9 120 6 6 12 19 12 28 0 8 9 21 20 28 11 7 20 19 20 26 0
8 12 23 27 34 25 18 26 22 15 47 -12 25 -3 52 34 103 1 2 11 -2 22 -9 17 -10
24 -10 37 1 14 12 16 25 11 71 -4 44 -2 60 9 69 8 7 15 23 15 37 0 27 38 83
56 83 7 0 27 12 44 27 18 15 48 28 67 30 24 3 45 15 67 38 18 18 45 37 62 41
16 4 34 11 40 15 24 19 147 26 309 19 224 -11 303 -32 390 -107 22 -19 69 -56
105 -81 66 -48 148 -141 173 -196 8 -17 29 -70 47 -118 18 -48 36 -85 40 -83
13 8 30 -71 30 -137 0 -55 -4 -68 -23 -86 -17 -17 -22 -30 -19 -52 4 -28 0
-32 -41 -50 -25 -11 -65 -22 -89 -23 -32 -2 -44 -8 -46 -21 -4 -17 1 -18 56
-12 73 8 112 0 112 -23 0 -9 -12 -41 -26 -69 -38 -76 -126 -132 -208 -132 -49
0 -61 -7 -45 -27 16 -19 106 -16 154 6 50 22 95 34 95 24 0 -5 -14 -19 -31
-34 -27 -22 -32 -32 -36 -90 -4 -48 -1 -69 11 -84 14 -19 15 -18 14 16 -1 33
20 99 32 99 3 -1 23 -19 45 -40 22 -22 47 -40 57 -40 26 0 22 13 -12 38 -36
27 -39 60 -10 120 18 37 23 41 40 32 10 -6 22 -15 25 -20 3 -6 13 -10 21 -10
13 0 13 3 0 22 -18 26 -20 38 -6 38 5 0 17 -14 25 -30 9 -17 20 -28 25 -25 6
4 6 14 -1 26 -15 29 -18 100 -5 121 8 13 24 18 58 18 53 0 61 10 23 30 -14 8
-24 19 -21 26 2 6 0 16 -6 22 -8 8 -3 15 18 24 39 16 39 16 24 33 -7 8 -22 15
-33 15 -18 0 -18 2 7 25 15 14 36 25 47 25 10 0 19 6 19 14 0 22 -40 46 -76
46 -43 0 -58 21 -50 69 4 29 2 42 -10 52 -14 11 -18 11 -29 -4 -11 -16 -13
-15 -23 10 -5 16 -15 49 -22 74 -7 26 -27 68 -46 95 -19 26 -34 56 -34 65 0
10 -13 40 -30 66 -16 26 -30 52 -30 59 0 7 -15 23 -32 35 -18 12 -54 43 -79
68 -99 98 -159 151 -172 151 -8 0 -35 11 -60 25 -26 13 -83 31 -128 40 -46 8
-85 17 -87 20 -3 3 -11 0 -19 -6 -9 -8 -21 -7 -45 4 -57 26 -181 29 -288 6z"/>
</g>
</svg>
